<svg width="17" height="20" viewBox="0 0 17 20" fill="none" xmlns="http://www.w3.org/2000/svg">
<path d="M7.35938 0H8.76562C8.89062 0 8.95312 0.0704599 8.95312 0.21138V18.8128C8.95312 18.9537 8.89062 19.0242 8.76562 19.0242H7.35938C7.23438 19.0242 7.17188 18.9537 7.17188 18.8128V0.21138C7.17188 0.0704599 7.23438 0 7.35938 0Z" fill="#E2622C"/>
<path d="M0.1875 8.50803H15.9375C16.0625 8.50803 16.125 8.57849 16.125 8.71941V10.3048C16.125 10.4457 16.0625 10.5161 15.9375 10.5161H0.1875C0.0625 10.5161 0 10.4457 0 10.3048V8.71941C0 8.57849 0.0625 8.50803 0.1875 8.50803Z" fill="#E2622C"/>
</svg>
