<svg width="7" height="12" viewBox="0 0 7 12" fill="none" xmlns="http://www.w3.org/2000/svg">
<path d="M6.8987 1.9843V0.927467C6.8987 0.835866 6.79343 0.78528 6.72233 0.841334L0.559053 5.6552C0.506687 5.69592 0.464315 5.74807 0.435168 5.80766C0.406021 5.86725 0.390869 5.93271 0.390869 5.99905C0.390869 6.06539 0.406021 6.13085 0.435168 6.19044C0.464315 6.25003 0.506687 6.30217 0.559053 6.3429L6.72233 11.1568C6.7948 11.2128 6.8987 11.1622 6.8987 11.0706V10.0138C6.8987 9.9468 6.86726 9.88254 6.8153 9.84153L1.89343 5.99973L6.8153 2.15657C6.86726 2.11555 6.8987 2.0513 6.8987 1.9843Z" fill="#BFBFBF"/>
</svg>
