<svg width="14" height="14" viewBox="0 0 14 14" fill="none" xmlns="http://www.w3.org/2000/svg">
<path d="M12.4995 7.09422H6.90577V1.50047C6.90577 1.43172 6.84952 1.37547 6.78077 1.37547H6.37452C5.55374 1.37413 4.74079 1.53509 3.98245 1.8491C3.22411 2.16311 2.53534 2.62397 1.95577 3.20516C1.385 3.77416 0.930224 4.44864 0.616709 5.1911C0.290467 5.96116 0.12306 6.78916 0.124521 7.62547C0.123177 8.44626 0.28414 9.2592 0.598149 10.0175C0.912159 10.7759 1.37302 11.4647 1.95421 12.0442C2.52765 12.6177 3.1964 13.0692 3.94015 13.3833C4.71021 13.7095 5.53821 13.8769 6.37452 13.8755C7.1953 13.8768 8.00825 13.7159 8.76659 13.4018C9.52493 13.0878 10.2137 12.627 10.7933 12.0458C11.3667 11.4724 11.8183 10.8036 12.1323 10.0598C12.4586 9.28979 12.626 8.46179 12.6245 7.62547V7.21922C12.6245 7.15047 12.5683 7.09422 12.4995 7.09422ZM10.0261 11.3098C9.54225 11.7899 8.96845 12.1698 8.33756 12.4277C7.70667 12.6857 7.03109 12.8166 6.34952 12.813C4.97296 12.8067 3.67921 12.2677 2.70577 11.2942C1.72608 10.3145 1.18702 9.01141 1.18702 7.62547C1.18702 6.23954 1.72608 4.93641 2.70577 3.95672C3.5589 3.1036 4.65733 2.58329 5.84327 2.46454V8.15672H11.5355C11.4151 9.34891 10.8901 10.4536 10.0261 11.3098ZM13.8745 6.22547L13.8339 5.78485C13.7011 4.34579 13.062 2.98797 12.0339 1.96297C11.0051 0.936094 9.65003 0.300577 8.20265 0.1661L7.76046 0.125475C7.68702 0.119225 7.62452 0.175475 7.62452 0.248912V6.25047C7.62452 6.31922 7.68077 6.37547 7.74952 6.37547L13.7495 6.35985C13.823 6.35985 13.8808 6.29735 13.8745 6.22547ZM8.6839 5.3161V1.30672C9.66817 1.51274 10.5714 2.00019 11.2839 2.70985C11.998 3.42235 12.487 4.3286 12.6901 5.30516L8.6839 5.3161Z" fill="#262626"/>
</svg>
