<svg width="14" height="14" viewBox="0 0 14 14" fill="none" xmlns="http://www.w3.org/2000/svg">
<path d="M12.4996 7.09422H6.90589V1.50047C6.90589 1.43172 6.84964 1.37547 6.78089 1.37547H6.37464C5.55386 1.37413 4.74091 1.53509 3.98257 1.8491C3.22423 2.16311 2.53546 2.62397 1.95589 3.20516C1.38513 3.77416 0.930346 4.44864 0.616831 5.1911C0.290589 5.96116 0.123182 6.78916 0.124643 7.62547C0.123299 8.44626 0.284262 9.2592 0.598271 10.0175C0.912281 10.7759 1.37314 11.4647 1.95433 12.0442C2.52777 12.6177 3.19652 13.0692 3.94027 13.3833C4.71033 13.7095 5.53833 13.8769 6.37464 13.8755C7.19543 13.8768 8.00837 13.7159 8.76671 13.4018C9.52506 13.0878 10.2138 12.627 10.7934 12.0458C11.3668 11.4724 11.8184 10.8036 12.1325 10.0598C12.4587 9.28979 12.6261 8.46179 12.6246 7.62547V7.21922C12.6246 7.15047 12.5684 7.09422 12.4996 7.09422ZM10.0262 11.3098C9.54237 11.7899 8.96858 12.1698 8.33769 12.4277C7.7068 12.6857 7.03121 12.8166 6.34964 12.813C4.97308 12.8067 3.67933 12.2677 2.70589 11.2942C1.72621 10.3145 1.18714 9.01141 1.18714 7.62547C1.18714 6.23954 1.72621 4.93641 2.70589 3.95672C3.55902 3.1036 4.65746 2.58329 5.84339 2.46454V8.15672H11.5356C11.4153 9.34891 10.8903 10.4536 10.0262 11.3098ZM13.8746 6.22547L13.834 5.78485C13.7012 4.34579 13.0621 2.98797 12.034 1.96297C11.0052 0.936094 9.65015 0.300577 8.20277 0.1661L7.76058 0.125475C7.68714 0.119225 7.62464 0.175475 7.62464 0.248912V6.25047C7.62464 6.31922 7.68089 6.37547 7.74964 6.37547L13.7496 6.35985C13.8231 6.35985 13.8809 6.29735 13.8746 6.22547ZM8.68402 5.3161V1.30672C9.66829 1.51274 10.5715 2.00019 11.284 2.70985C11.9981 3.42235 12.4871 4.3286 12.6903 5.30516L8.68402 5.3161Z" fill="#2D9CDB"/>
</svg>
