<svg width="145" height="161" viewBox="0 0 145 161" fill="none" xmlns="http://www.w3.org/2000/svg">
<path d="M4.78233 118.719C0.316877 121.577 -1.02794 127.558 2.34087 131.652C9.14787 139.924 17.5592 146.779 27.1024 151.786C39.4887 158.284 53.3543 161.442 67.333 160.95C81.3116 160.458 94.9207 156.332 106.819 148.979C118.718 141.626 128.495 131.299 135.187 119.017C141.88 106.734 145.257 92.9202 144.985 78.9356C144.713 64.9509 140.802 51.2785 133.637 39.2655C126.473 27.2526 116.301 17.3137 104.126 10.4285C94.7455 5.12361 84.4245 1.77247 73.7835 0.537064C68.5172 -0.074343 64.2203 4.29836 64.2398 9.59998C64.2592 14.9016 68.5984 19.1068 73.8381 19.9144C81.1377 21.0395 88.2007 23.4788 94.6755 27.1403C103.947 32.3835 111.692 39.9519 117.148 49.0998C122.604 58.2477 125.582 68.6593 125.789 79.3087C125.996 89.958 123.425 100.478 118.329 109.831C113.232 119.184 105.787 127.047 96.7262 132.647C87.6655 138.246 77.3021 141.388 66.6573 141.763C56.0126 142.138 45.4538 139.733 36.0216 134.784C29.4347 131.329 23.5559 126.716 18.6531 121.192C15.1338 117.227 9.24778 115.861 4.78233 118.719Z" fill="#F7931E"/>
</svg>
