<svg width="14" height="15" viewBox="0 0 14 15" fill="none" xmlns="http://www.w3.org/2000/svg">
<path d="M13.4507 9.77549L12.4272 8.90049C12.4757 8.60361 12.5007 8.30049 12.5007 7.99736C12.5007 7.69424 12.4757 7.39111 12.4272 7.09424L13.4507 6.21924C13.5279 6.15315 13.5831 6.06514 13.6091 5.96689C13.635 5.86865 13.6305 5.76483 13.596 5.66924L13.5819 5.62861C13.3002 4.84115 12.8783 4.11117 12.3366 3.47393L12.3085 3.44111C12.2428 3.36385 12.1552 3.30831 12.0573 3.28181C11.9594 3.25531 11.8558 3.2591 11.7601 3.29268L10.4897 3.74424C10.021 3.35986 9.49756 3.05674 8.93194 2.84424L8.68662 1.51611C8.66812 1.41618 8.61964 1.32424 8.54763 1.25252C8.47563 1.18079 8.3835 1.13267 8.2835 1.11455L8.24131 1.10674C7.42725 0.959863 6.571 0.959863 5.75694 1.10674L5.71475 1.11455C5.61474 1.13267 5.52262 1.18079 5.45061 1.25252C5.37861 1.32424 5.33013 1.41618 5.31162 1.51611L5.06475 2.85049C4.50364 3.06303 3.9811 3.366 3.51787 3.74736L2.23819 3.29268C2.14251 3.25884 2.0388 3.25491 1.94084 3.28143C1.84287 3.30794 1.7553 3.36364 1.68975 3.44111L1.66162 3.47393C1.1206 4.11162 0.698774 4.84148 0.416312 5.62861L0.402249 5.66924C0.331937 5.86455 0.389749 6.0833 0.547562 6.21924L1.5835 7.10361C1.53506 7.39736 1.51162 7.69736 1.51162 7.9958C1.51162 8.2958 1.53506 8.5958 1.5835 8.88799L0.547562 9.77236C0.470368 9.83845 0.415119 9.92646 0.389162 10.0247C0.363205 10.123 0.36777 10.2268 0.402249 10.3224L0.416312 10.363C0.699124 11.1505 1.11787 11.8771 1.66162 12.5177L1.68975 12.5505C1.75546 12.6278 1.84304 12.6833 1.94094 12.7098C2.03884 12.7363 2.14248 12.7325 2.23819 12.6989L3.51787 12.2442C3.9835 12.6271 4.50381 12.9302 5.06475 13.1411L5.31162 14.4755C5.33013 14.5754 5.37861 14.6674 5.45061 14.7391C5.52262 14.8108 5.61474 14.8589 5.71475 14.8771L5.75694 14.8849C6.57848 15.0325 7.41977 15.0325 8.24131 14.8849L8.2835 14.8771C8.3835 14.8589 8.47563 14.8108 8.54763 14.7391C8.61964 14.6674 8.66812 14.5754 8.68662 14.4755L8.93194 13.1474C9.49733 12.9354 10.0237 12.6313 10.4897 12.2474L11.7601 12.6989C11.8557 12.7328 11.9595 12.7367 12.0574 12.7102C12.1554 12.6837 12.2429 12.628 12.3085 12.5505L12.3366 12.5177C12.8804 11.8755 13.2991 11.1505 13.5819 10.363L13.596 10.3224C13.6663 10.1302 13.6085 9.91143 13.4507 9.77549ZM11.3179 7.27861C11.3569 7.51455 11.3772 7.75674 11.3772 7.99893C11.3772 8.24111 11.3569 8.4833 11.3179 8.71924L11.2147 9.3458L12.3819 10.3442C12.205 10.7519 11.9816 11.1378 11.7163 11.4942L10.2663 10.9802L9.77569 11.3833C9.40225 11.6896 8.98662 11.9302 8.53662 12.0989L7.94131 12.3224L7.66162 13.838C7.22033 13.888 6.7748 13.888 6.3335 13.838L6.05381 12.3192L5.46319 12.0927C5.01787 11.9239 4.60381 11.6833 4.2335 11.3786L3.74287 10.9739L2.2835 11.4927C2.01787 11.1349 1.796 10.7489 1.61787 10.3427L2.79756 9.33486L2.696 8.70986C2.6585 8.47705 2.63819 8.23643 2.63819 7.99893C2.63819 7.75986 2.65694 7.5208 2.696 7.28799L2.79756 6.66299L1.61787 5.65518C1.79444 5.24736 2.01787 4.86299 2.2835 4.50518L3.74287 5.02393L4.2335 4.61924C4.60381 4.31455 5.01787 4.07393 5.46319 3.90518L6.05537 3.68174L6.33506 2.16299C6.77412 2.11299 7.22256 2.11299 7.66319 2.16299L7.94287 3.67861L8.53819 3.90205C8.98662 4.0708 9.40381 4.31143 9.77725 4.61768L10.2679 5.0208L11.7179 4.50674C11.9835 4.86455 12.2054 5.25049 12.3835 5.65674L11.2163 6.65518L11.3179 7.27861ZM7.00069 5.09268C5.48194 5.09268 4.25069 6.32393 4.25069 7.84268C4.25069 9.36143 5.48194 10.5927 7.00069 10.5927C8.51944 10.5927 9.75069 9.36143 9.75069 7.84268C9.75069 6.32393 8.51944 5.09268 7.00069 5.09268ZM8.23819 9.08018C8.07588 9.24295 7.88299 9.37203 7.67061 9.45998C7.45823 9.54794 7.23056 9.59303 7.00069 9.59268C6.5335 9.59268 6.09444 9.40986 5.76319 9.08018C5.60041 8.91787 5.47133 8.72497 5.38338 8.5126C5.29542 8.30022 5.25033 8.07255 5.25069 7.84268C5.25069 7.37549 5.4335 6.93643 5.76319 6.60518C6.09444 6.27393 6.5335 6.09268 7.00069 6.09268C7.46787 6.09268 7.90694 6.27393 8.23819 6.60518C8.40096 6.76749 8.53004 6.96038 8.61799 7.17276C8.70595 7.38513 8.75104 7.61281 8.75069 7.84268C8.75069 8.30986 8.56787 8.74893 8.23819 9.08018Z" fill="#262626"/>
</svg>
