<svg width="14" height="14" viewBox="0 0 14 14" fill="none" xmlns="http://www.w3.org/2000/svg">
<path d="M11.8778 9.93582C11.4867 9.5444 11.0297 9.22494 10.5278 8.99207C11.2356 8.41863 11.6872 7.54363 11.6872 6.56238C11.6872 4.83113 10.2434 3.41082 8.51217 3.43738C6.80749 3.46394 5.43405 4.853 5.43405 6.56238C5.43405 7.54363 5.88717 8.41863 6.59342 8.99207C6.0914 9.22477 5.63439 9.54425 5.24342 9.93582C4.3903 10.7905 3.90592 11.9186 3.87467 13.1218C3.87426 13.1384 3.87718 13.155 3.88328 13.1705C3.88937 13.1861 3.89851 13.2002 3.91016 13.2122C3.92181 13.2241 3.93573 13.2336 3.95111 13.2401C3.96648 13.2465 3.98299 13.2499 3.99967 13.2499H4.87467C4.94186 13.2499 4.99811 13.1968 4.99967 13.1296C5.02936 12.2233 5.39655 11.3749 6.04186 10.7311C6.37208 10.3992 6.76486 10.136 7.19747 9.95681C7.63008 9.77765 8.09393 9.68607 8.56217 9.68738C9.51374 9.68738 10.409 10.0577 11.0825 10.7311C11.7262 11.3749 12.0934 12.2233 12.1247 13.1296C12.1262 13.1968 12.1825 13.2499 12.2497 13.2499H13.1247C13.1414 13.2499 13.1579 13.2465 13.1732 13.2401C13.1886 13.2336 13.2025 13.2241 13.2142 13.2122C13.2258 13.2002 13.235 13.1861 13.2411 13.1705C13.2472 13.155 13.2501 13.1384 13.2497 13.1218C13.2184 11.9186 12.734 10.7905 11.8778 9.93582ZM8.56217 8.56238C8.0278 8.56238 7.52467 8.35457 7.14811 7.97644C6.95913 7.78895 6.80985 7.56531 6.70918 7.31888C6.60852 7.07244 6.55852 6.80825 6.56217 6.54207C6.56686 6.02957 6.77155 5.53425 7.12936 5.16707C7.50436 4.78269 8.00592 4.56863 8.54186 4.56238C9.07155 4.55769 9.58561 4.76394 9.96374 5.13425C10.3512 5.51394 10.5637 6.02175 10.5637 6.56238C10.5637 7.09675 10.3559 7.59832 9.9778 7.97644C9.79229 8.16284 9.57165 8.3106 9.32866 8.41118C9.08568 8.51175 8.82515 8.56314 8.56217 8.56238ZM4.64811 6.97488C4.63405 6.83894 4.62624 6.70144 4.62624 6.56238C4.62624 6.31394 4.64967 6.07175 4.69342 5.83582C4.70436 5.77957 4.67467 5.72175 4.62311 5.69832C4.41061 5.603 4.2153 5.47175 4.04655 5.30613C3.8477 5.11333 3.69123 4.88119 3.58712 4.62454C3.483 4.36789 3.43353 4.09235 3.44186 3.8155C3.45592 3.31394 3.65749 2.83738 4.00905 2.478C4.39499 2.08269 4.91374 1.86707 5.4653 1.87332C5.96374 1.878 6.44499 2.07019 6.80905 2.41082C6.93249 2.52644 7.03874 2.65457 7.1278 2.79207C7.15905 2.8405 7.21999 2.86082 7.27311 2.84207C7.54811 2.74675 7.83874 2.67957 8.13717 2.64832C8.22467 2.63894 8.27467 2.54519 8.23561 2.46707C7.7278 1.46238 6.6903 0.768628 5.4903 0.749878C3.75749 0.723316 2.31374 2.14363 2.31374 3.87332C2.31374 4.85457 2.7653 5.72957 3.47311 6.303C2.97624 6.53269 2.51842 6.84988 2.12155 7.24675C1.2653 8.10144 0.780923 9.22957 0.749673 10.4343C0.749256 10.4509 0.752181 10.4675 0.758276 10.483C0.764371 10.4986 0.773512 10.5127 0.785161 10.5247C0.79681 10.5366 0.810731 10.5461 0.826104 10.5526C0.841478 10.559 0.857991 10.5624 0.874673 10.5624H1.75124C1.81842 10.5624 1.87467 10.5093 1.87624 10.4421C1.90592 9.53582 2.27311 8.68738 2.91842 8.04363C3.3778 7.58425 3.9403 7.2655 4.55436 7.11082C4.6153 7.09519 4.65592 7.03738 4.64811 6.97488Z" fill="#262626"/>
</svg>
