<svg width="14" height="12" viewBox="0 0 14 12" fill="none" xmlns="http://www.w3.org/2000/svg">
<path d="M13.5 0.5H0.5C0.223437 0.5 0 0.723437 0 1V11C0 11.2766 0.223437 11.5 0.5 11.5H13.5C13.7766 11.5 14 11.2766 14 11V1C14 0.723437 13.7766 0.5 13.5 0.5ZM1.125 1.625H12.875V3.5H1.125V1.625ZM12.875 10.375H1.125V4.875H12.875V10.375ZM9.17188 9.375H11.75C11.8188 9.375 11.875 9.31875 11.875 9.25V8.125C11.875 8.05625 11.8188 8 11.75 8H9.17188C9.10312 8 9.04688 8.05625 9.04688 8.125V9.25C9.04688 9.31875 9.10312 9.375 9.17188 9.375Z" fill="#262626"/>
</svg>
